<svg width="22" height="18" viewBox="0 0 22 18" fill="none" xmlns="http://www.w3.org/2000/svg">
<g clip-path="url(#clip0_166_2484)">
<path d="M21.8603 3.04447C21.0417 3.38771 20.1735 3.61301 19.2844 3.71288C20.2105 3.18753 20.9215 2.35561 21.2563 1.3644C20.376 1.85886 19.4128 2.20724 18.4084 2.39449C17.5903 1.56953 16.4248 1.05396 15.1348 1.05396C12.6579 1.05396 10.6497 2.95459 10.6497 5.29879C10.6497 5.63154 10.6894 5.95548 10.7659 6.26625C7.03851 6.08916 3.73384 4.39923 1.52177 1.83099C1.1358 2.45794 0.914632 3.1872 0.914632 3.96505C0.914632 5.43781 1.70647 6.73704 2.90981 7.49832C2.1976 7.4772 1.50106 7.29513 0.87834 6.96731C0.878084 6.98509 0.878084 7.00287 0.878084 7.02073C0.878084 9.07744 2.42402 10.7932 4.47564 11.1831C3.81521 11.3531 3.12246 11.378 2.45032 11.2559C3.02099 12.9423 4.67734 14.1695 6.63981 14.2039C5.1049 15.3424 3.17103 16.021 1.06987 16.021C0.707813 16.021 0.350875 16.0009 0 15.9617C1.98476 17.1661 4.34218 17.8689 6.8749 17.8689C15.1243 17.8689 19.6353 11.4005 19.6353 5.79109C19.6353 5.60697 19.6311 5.42391 19.6224 5.24189C20.5004 4.64112 21.2582 3.89701 21.8603 3.04447Z" fill="white"/>
</g>
<defs>
<clipPath id="clip0_166_2484">
<rect width="21.8603" height="16.8921" fill="white" transform="translate(0 0.987549)"/>
</clipPath>
</defs>
</svg>
