<svg width="21" height="20" viewBox="0 0 21 20" fill="none" xmlns="http://www.w3.org/2000/svg">
<g clip-path="url(#clip0_166_2487)">
<path d="M20.2954 5.28633V16.2277C20.2954 16.9388 19.6892 17.5146 18.9407 17.5146H15.7784V10.2209L10.3589 14.0833L4.93933 10.2209V17.5154H1.77704C1.59907 17.5154 1.42285 17.4821 1.25844 17.4174C1.09403 17.3527 0.94465 17.2578 0.818846 17.1382C0.693042 17.0186 0.593275 16.8767 0.525244 16.7204C0.457214 16.5642 0.422255 16.3968 0.422364 16.2277V5.28633C0.422364 3.69496 2.33431 2.78639 3.67408 3.74137L4.93933 4.64364L10.3589 8.50447L15.7784 4.64207L17.0436 3.74137C18.3826 2.78717 20.2954 3.69496 20.2954 5.28633Z" fill="white"/>
</g>
<defs>
<clipPath id="clip0_166_2487">
<rect width="19.873" height="18.8794" fill="white" transform="translate(0.422363 0.993652)"/>
</clipPath>
</defs>
</svg>
