<svg width="21" height="20" viewBox="0 0 21 20" fill="none" xmlns="http://www.w3.org/2000/svg">
<path fill-rule="evenodd" clip-rule="evenodd" d="M1.53613 2.30395C1.53613 1.91254 1.69162 1.53716 1.96839 1.26039C2.24516 0.983615 2.62054 0.828127 3.01195 0.828127H17.7236C17.9176 0.82781 18.1097 0.865756 18.289 0.939791C18.4683 1.01383 18.6312 1.1225 18.7684 1.25958C18.9057 1.39667 19.0145 1.55947 19.0887 1.73868C19.163 1.91789 19.2011 2.10998 19.201 2.30395V17.0156C19.2012 17.2096 19.1632 17.4018 19.0891 17.581C19.0149 17.7603 18.9062 17.9233 18.7691 18.0605C18.6319 18.1977 18.469 18.3065 18.2898 18.3808C18.1105 18.455 17.9184 18.4931 17.7244 18.493H3.01195C2.81808 18.493 2.6261 18.4548 2.447 18.3806C2.26789 18.3064 2.10516 18.1976 1.96811 18.0605C1.83105 17.9234 1.72236 17.7606 1.64824 17.5814C1.57412 17.4023 1.53603 17.2103 1.53613 17.0164V2.30395ZM8.52822 7.56327H10.9202V8.76448C11.2655 8.07395 12.1487 7.45246 13.476 7.45246C16.0205 7.45246 16.6236 8.82792 16.6236 11.3516V16.0264H14.0485V11.9265C14.0485 10.4892 13.7032 9.67824 12.8264 9.67824C11.6099 9.67824 11.1041 10.5527 11.1041 11.9265V16.0264H8.52822V7.56327ZM4.112 15.9164H6.68786V7.45246H4.112V15.9156V15.9164ZM7.05641 4.69192C7.06127 4.91247 7.02202 5.13177 6.94098 5.33694C6.85994 5.54212 6.73873 5.72904 6.58446 5.88674C6.4302 6.04443 6.24599 6.16973 6.04265 6.25527C5.83931 6.34081 5.62093 6.38487 5.40033 6.38487C5.17973 6.38487 4.96135 6.34081 4.75801 6.25527C4.55466 6.16973 4.37046 6.04443 4.21619 5.88674C4.06193 5.72904 3.94072 5.54212 3.85968 5.33694C3.77863 5.13177 3.73939 4.91247 3.74424 4.69192C3.75378 4.25901 3.93244 3.84705 4.24198 3.54425C4.55152 3.24146 4.96732 3.0719 5.40033 3.0719C5.83334 3.0719 6.24914 3.24146 6.55868 3.54425C6.86821 3.84705 7.04688 4.25901 7.05641 4.69192Z" fill="white"/>
</svg>
